<svg xmlns="http://www.w3.org/2000/svg" viewBox="0 0 150 512"><!--! Font Awesome Free 6.1.1 by @fontawesome - https://fontawesome.com License - https://fontawesome.com/license/free (Icons: CC BY 4.0, Fonts: SIL OFL 1.1, Code: MIT License) Copyright 2022 Fonticons, Inc. -->
	<path fill="white" d="M88 352C110.1 352 128 369.9 128 392V440C128 462.1 110.1 480 88 480H40C17.91 480 0 462.1 0 440V392C0 369.9 17.91 352 40 352H88zM40 320C17.91 320 0 302.1 0 280V232C0 209.9 17.91 192 40 192H88C110.1 192 128 209.9 128 232V280C128 302.1 110.1 320 88 320H40zM40 160C17.91 160 0 142.1 0 120V72C0 49.91 17.91 32 40 32H88C110.1 32 128 49.91 128 72V120z"/>
</svg>